<svg width="24" height="25" viewBox="0 0 24 25" fill="none" xmlns="http://www.w3.org/2000/svg">
<path d="M15 17.0273C14.2005 17.6497 13.1502 18.0273 12 18.0273C10.8498 18.0273 9.79952 17.6497 9 17.0273" stroke="#888888" stroke-width="1.5" stroke-linecap="round"/>
<path d="M2.35139 13.2408C1.99837 10.9436 1.82186 9.79498 2.25617 8.77672C2.69047 7.75846 3.65403 7.06178 5.58114 5.66841L7.02099 4.62734C9.41829 2.89401 10.6169 2.02734 12 2.02734C13.3831 2.02734 14.5817 2.89401 16.979 4.62734L18.4189 5.66841C20.346 7.06178 21.3095 7.75846 21.7438 8.77672C22.1781 9.79498 22.0016 10.9436 21.6486 13.2408L21.3476 15.1997C20.8471 18.4563 20.5969 20.0845 19.429 21.0559C18.2611 22.0273 16.5537 22.0273 13.1388 22.0273H10.8612C7.44633 22.0273 5.73891 22.0273 4.571 21.0559C3.40309 20.0845 3.15287 18.4563 2.65243 15.1997L2.35139 13.2408Z" stroke="#888888" stroke-width="1.5" stroke-linejoin="round"/>
</svg>
