<svg width="24" height="25" viewBox="0 0 24 25" fill="none" xmlns="http://www.w3.org/2000/svg">
<path d="M9.5 13.7776C9.5 14.7476 10.25 15.5276 11.17 15.5276H13.05C13.85 15.5276 14.5 14.8476 14.5 13.9976C14.5 13.0876 14.1 12.7576 13.51 12.5476L10.5 11.4976C9.91 11.2876 9.51001 10.9676 9.51001 10.0476C9.51001 9.20758 10.16 8.51758 10.96 8.51758H12.84C13.76 8.51758 14.51 9.29758 14.51 10.2676" stroke="#888888" stroke-width="1.5" stroke-linecap="round" stroke-linejoin="round"/>
<path d="M12 7.52734V16.5273" stroke="#888888" stroke-width="1.5" stroke-linecap="round" stroke-linejoin="round"/>
<path d="M22 12.0273C22 17.5473 17.52 22.0273 12 22.0273C6.48 22.0273 2 17.5473 2 12.0273C2 6.50734 6.48 2.02734 12 2.02734" stroke="#888888" stroke-width="1.5" stroke-linecap="round" stroke-linejoin="round"/>
<path d="M22 6.02734V2.02734H18" stroke="#888888" stroke-width="1.5" stroke-linecap="round" stroke-linejoin="round"/>
<path d="M17 7.02734L22 2.02734" stroke="#888888" stroke-width="1.5" stroke-linecap="round" stroke-linejoin="round"/>
</svg>
