<svg width="32" height="33" viewBox="0 0 32 33" fill="none" xmlns="http://www.w3.org/2000/svg">
<path d="M16.2134 15.0747C16.0801 15.0614 15.9201 15.0614 15.7734 15.0747C12.6001 14.968 10.0801 12.368 10.0801 9.16805C10.0801 5.90138 12.7201 3.24805 16.0001 3.24805C19.2667 3.24805 21.9201 5.90138 21.9201 9.16805C21.9067 12.368 19.3867 14.968 16.2134 15.0747Z" stroke="#888888" stroke-width="1.5" stroke-linecap="round" stroke-linejoin="round"/>
<path d="M9.54671 19.996C6.32004 22.156 6.32004 25.676 9.54671 27.8227C13.2134 30.276 19.2267 30.276 22.8934 27.8227C26.12 25.6627 26.12 22.1427 22.8934 19.996C19.24 17.556 13.2267 17.556 9.54671 19.996Z" stroke="#888888" stroke-width="1.5" stroke-linecap="round" stroke-linejoin="round"/>
</svg>
