<svg width="24" height="25" viewBox="0 0 24 25" fill="none" xmlns="http://www.w3.org/2000/svg">
<path d="M9.15859 10.8973C9.05859 10.8873 8.93859 10.8873 8.82859 10.8973C6.44859 10.8173 4.55859 8.86734 4.55859 6.46734C4.55859 4.01734 6.53859 2.02734 8.99859 2.02734C11.4486 2.02734 13.4386 4.01734 13.4386 6.46734C13.4286 8.86734 11.5386 10.8173 9.15859 10.8973Z" stroke="#1AB168" stroke-width="1.5" stroke-linecap="round" stroke-linejoin="round"/>
<path d="M16.4112 4.02734C18.3512 4.02734 19.9112 5.59734 19.9112 7.52734C19.9112 9.41734 18.4113 10.9573 16.5413 11.0273C16.4613 11.0173 16.3713 11.0173 16.2812 11.0273" stroke="#1AB168" stroke-width="1.5" stroke-linecap="round" stroke-linejoin="round"/>
<path d="M4.15875 14.5873C1.73875 16.2073 1.73875 18.8473 4.15875 20.4573C6.90875 22.2973 11.4188 22.2973 14.1688 20.4573C16.5888 18.8373 16.5888 16.1973 14.1688 14.5873C11.4288 12.7573 6.91875 12.7573 4.15875 14.5873Z" stroke="#1AB168" stroke-width="1.5" stroke-linecap="round" stroke-linejoin="round"/>
<path d="M18.3398 20.0273C19.0598 19.8773 19.7398 19.5873 20.2998 19.1573C21.8598 17.9873 21.8598 16.0573 20.2998 14.8873C19.7498 14.4673 19.0798 14.1873 18.3698 14.0273" stroke="#1AB168" stroke-width="1.5" stroke-linecap="round" stroke-linejoin="round"/>
</svg>
