<svg width="24" height="25" viewBox="0 0 24 25" fill="none" xmlns="http://www.w3.org/2000/svg">
<path d="M14.2189 21.6567C13.0389 21.6567 11.3689 20.8267 10.0489 16.8567L9.32891 14.6967L7.16891 13.9767C3.20891 12.6567 2.37891 10.9867 2.37891 9.80668C2.37891 8.63668 3.20891 6.95668 7.16891 5.62668L15.6589 2.79668C17.7789 2.08668 19.5489 2.29668 20.6389 3.37668C21.7289 4.45668 21.9389 6.23668 21.2289 8.35668L18.3989 16.8467C17.0689 20.8267 15.3989 21.6567 14.2189 21.6567ZM7.63891 7.05668C4.85891 7.98668 3.86891 9.08668 3.86891 9.80668C3.86891 10.5267 4.85891 11.6267 7.63891 12.5467L10.1589 13.3867C10.3789 13.4567 10.5589 13.6367 10.6289 13.8567L11.4689 16.3767C12.3889 19.1567 13.4989 20.1467 14.2189 20.1467C14.9389 20.1467 16.0389 19.1567 16.9689 16.3767L19.7989 7.88668C20.3089 6.34668 20.2189 5.08668 19.5689 4.43668C18.9189 3.78668 17.6589 3.70668 16.1289 4.21668L7.63891 7.05668Z" fill="#888888"/>
<path d="M10.1108 14.4273C9.92078 14.4273 9.73078 14.3573 9.58078 14.2073C9.29078 13.9173 9.29078 13.4373 9.58078 13.1473L13.1608 9.55734C13.4508 9.26734 13.9308 9.26734 14.2208 9.55734C14.5108 9.84734 14.5108 10.3273 14.2208 10.6173L10.6408 14.2073C10.5008 14.3573 10.3008 14.4273 10.1108 14.4273Z" fill="#888888"/>
</svg>
