<svg width="18" height="18" viewBox="0 0 18 18" fill="none" xmlns="http://www.w3.org/2000/svg">
<path d="M12.8181 14.5295H5.72583C3.59814 14.5295 2.17969 13.4657 2.17969 10.9834V6.0188C2.17969 3.5365 3.59814 2.47266 5.72583 2.47266H12.8181C14.9458 2.47266 16.3643 3.5365 16.3643 6.0188V10.9834C16.3643 13.4657 14.9458 14.5295 12.8181 14.5295Z" stroke="#1AB168" stroke-width="1.06384" stroke-miterlimit="10" stroke-linecap="round" stroke-linejoin="round"/>
<path d="M9.27222 10.6284C10.4473 10.6284 11.3999 9.67582 11.3999 8.50073C11.3999 7.32564 10.4473 6.37305 9.27222 6.37305C8.09713 6.37305 7.14453 7.32564 7.14453 8.50073C7.14453 9.67582 8.09713 10.6284 9.27222 10.6284Z" stroke="#1AB168" stroke-width="1.06384" stroke-miterlimit="10" stroke-linecap="round" stroke-linejoin="round"/>
<path d="M14.2371 4.95508H12.1094" stroke="#1AB168" stroke-width="1.06384" stroke-miterlimit="10" stroke-linecap="round" stroke-linejoin="round"/>
<path d="M6.43628 12.0469H4.30859" stroke="#1AB168" stroke-width="1.06384" stroke-miterlimit="10" stroke-linecap="round" stroke-linejoin="round"/>
</svg>
